<svg xmlns="http://www.w3.org/2000/svg" viewBox="0 0 960 540" role="img">
  <defs>
    <linearGradient id="paper" x1="0" x2="1" y1="0" y2="1">
      <stop offset="0" stop-color="#fffdfa"/>
      <stop offset="1" stop-color="#f0e9df"/>
    </linearGradient>
    <filter id="softShadow" x="-20%" y="-20%" width="140%" height="140%">
      <feDropShadow dx="0" dy="18" stdDeviation="22" flood-color="#483626" flood-opacity=".13"/>
    </filter>
  </defs>
  <rect width="960" height="540" fill="#f6f3ed"/>
  <circle cx="790" cy="104" r="74" fill="#f4e1d5"/>
  <circle cx="140" cy="438" r="96" fill="#eee6dc"/>
  <g filter="url(#softShadow)">
    <rect x="170" y="92" width="620" height="356" rx="34" fill="url(#paper)" stroke="#d8d1c7"/>
  </g>
  <path d="M310 178 C386 118 530 118 628 178" fill="none" stroke="#d8d1c7" stroke-width="10" stroke-linecap="round"/>
  <path d="M650 206 C714 274 672 364 578 394" fill="none" stroke="#d8d1c7" stroke-width="10" stroke-linecap="round"/>
  <path d="M382 394 C282 358 248 270 308 204" fill="none" stroke="#d8d1c7" stroke-width="10" stroke-linecap="round"/>
  <circle cx="480" cy="150" r="42" fill="#5968e8"/>
  <circle cx="662" cy="300" r="42" fill="#347a66"/>
  <circle cx="298" cy="300" r="42" fill="#c65d28"/>
  <path d="M454 151 h52" stroke="#fffaf6" stroke-width="10" stroke-linecap="round"/>
  <path d="M642 300 h40 M662 280 v40" stroke="#fffaf6" stroke-width="10" stroke-linecap="round"/>
  <path d="M278 290 l18 18 30 -36" fill="none" stroke="#fffaf6" stroke-width="10" stroke-linecap="round" stroke-linejoin="round"/>
  <rect x="384" y="246" width="192" height="88" rx="24" fill="#ffffff" stroke="#d8d1c7"/>
  <rect x="420" y="274" width="118" height="10" rx="5" fill="#282522"/>
  <rect x="420" y="302" width="72" height="8" rx="4" fill="#a39b91"/>
  <circle cx="548" cy="306" r="8" fill="#c65d28"/>
  <circle cx="574" cy="306" r="8" fill="#f0883e"/>
</svg>
