<svg xmlns="http://www.w3.org/2000/svg" viewBox="0 0 326 72" fill="none" role="img" aria-labelledby="title desc">
  <title id="title">Meldwork Trace wordmark</title>
  <desc id="desc">The Meldwork name paired with the asymmetric Trace mark and coral acceptance point.</desc>
  <path
    d="M13 57V33C13 23.4 18.3 17 26.2 17C34.1 17 38.8 23.4 38.8 32.8V56.5C38.8 39.1 44.4 27 52.9 27C61.1 27 65.9 33.5 65.9 42.5V47.5C65.9 53.8 69.1 57 74.7 57"
    stroke="#17191C"
    stroke-width="9"
    stroke-linecap="round"
    stroke-linejoin="round"
  />
  <circle cx="85.5" cy="57" r="4.8" fill="#EF5A45" />
  <path
    transform="translate(12 0) scale(1.35)"
    fill="#17191C"
    d="M80.27 43L80.27 20.09L87.19 20.09L91.34 35.72L95.45 20.09L102.39 20.09L102.39 43L98.09 43L98.09 24.97L93.55 43L89.09 43L84.56 24.97L84.56 43ZM116.56 37.72L120.94 38.45Q120.09 40.86 118.27 42.12Q116.45 43.38 113.72 43.38Q109.39 43.38 107.31 40.55Q105.67 38.28 105.67 34.83Q105.67 30.7 107.83 28.37Q109.98 26.03 113.28 26.03Q116.98 26.03 119.13 28.48Q121.27 30.92 121.17 35.97L110.17 35.97Q110.22 37.92 111.23 39.01Q112.25 40.09 113.77 40.09Q114.8 40.09 115.5 39.53Q116.2 38.97 116.56 37.72ZM116.81 33.28Q116.77 31.38 115.83 30.38Q114.89 29.39 113.55 29.39Q112.11 29.39 111.17 30.44Q110.23 31.48 110.25 33.28ZM124.75 43L124.75 20.09L129.14 20.09L129.14 43ZM148.86 43L144.78 43L144.78 40.56Q143.77 41.98 142.38 42.68Q141 43.38 139.59 43.38Q136.73 43.38 134.7 41.07Q132.66 38.77 132.66 34.64Q132.66 30.42 134.64 28.23Q136.63 26.03 139.66 26.03Q142.44 26.03 144.47 28.34L144.47 20.09L148.86 20.09ZM137.14 34.34Q137.14 37 137.88 38.19Q138.94 39.91 140.84 39.91Q142.36 39.91 143.42 38.62Q144.48 37.33 144.48 34.77Q144.48 31.91 143.45 30.65Q142.42 29.39 140.81 29.39Q139.25 29.39 138.2 30.63Q137.14 31.88 137.14 34.34ZM156.28 43L151.03 26.41L155.3 26.41L158.41 37.28L161.27 26.41L165.5 26.41L168.27 37.28L171.44 26.41L175.77 26.41L170.44 43L166.22 43L163.36 32.33L160.55 43ZM177.06 34.47Q177.06 32.28 178.14 30.23Q179.22 28.19 181.2 27.11Q183.17 26.03 185.61 26.03Q189.38 26.03 191.78 28.48Q194.19 30.92 194.19 34.66Q194.19 38.42 191.76 40.9Q189.33 43.38 185.64 43.38Q183.36 43.38 181.29 42.34Q179.22 41.31 178.14 39.32Q177.06 37.33 177.06 34.47ZM181.56 34.7Q181.56 37.17 182.73 38.48Q183.91 39.8 185.63 39.8Q187.34 39.8 188.51 38.48Q189.67 37.17 189.67 34.67Q189.67 32.23 188.51 30.92Q187.34 29.61 185.63 29.61Q183.91 29.61 182.73 30.92Q181.56 32.23 181.56 34.7ZM201.83 43L197.44 43L197.44 26.41L201.52 26.41L201.52 28.77Q202.56 27.09 203.4 26.56Q204.23 26.03 205.3 26.03Q206.8 26.03 208.19 26.86L206.83 30.69Q205.72 29.97 204.77 29.97Q203.84 29.97 203.2 30.48Q202.56 30.98 202.2 32.31Q201.83 33.64 201.83 37.88ZM209.92 43L209.92 20.09L214.31 20.09L214.31 32.25L219.45 26.41L224.86 26.41L219.19 32.47L225.27 43L220.53 43L216.36 35.55L214.31 37.69L214.31 43Z"
  />
</svg>
